<mxfile host="app.diagrams.net" modified="2022-01-10T04:03:28.407Z" agent="5.0 (Windows)" etag="J7JhlpuemznmtDkU7Wyj" version="16.2.1" type="github">
  <diagram id="SdjUZ_nZgxTXJaho-sEl" name="第 1 页">
    <mxGraphModel dx="989" dy="510" grid="1" gridSize="10" guides="1" tooltips="1" connect="1" arrows="1" fold="1" page="1" pageScale="1" pageWidth="827" pageHeight="1169" math="0" shadow="0">
      <root>
        <mxCell id="0" />
        <mxCell id="1" parent="0" />
      </root>
    </mxGraphModel>
  </diagram>
</mxfile>
